GIL08_xslow2_RRA_states
nRows=4
nColumns=47

# SIMM Motion File Header:
name GIL08_xslow2_RRA_states
datacolumns 47
datarows 4
otherdata 1
range 1.32082999999996530000 1.32232999999996510000
endheader
time	pelvis_tx	pelvis_ty	pelvis_tz	pelvis_tilt	pelvis_list	pelvis_rotation	hip_flexion_r	hip_adduction_r	hip_rotation_r	knee_angle_r	ankle_angle_r	subtalar_angle_r	mtp_angle_r	hip_flexion_l	hip_adduction_l	hip_rotation_l	knee_angle_l	ankle_angle_l	subtalar_angle_l	mtp_angle_l	lumbar_extension	lumbar_bending	lumbar_rotation	pelvis_tx_u	pelvis_ty_u	pelvis_tz_u	pelvis_tilt_u	pelvis_list_u	pelvis_rotation_u	hip_flexion_r_u	hip_adduction_r_u	hip_rotation_r_u	knee_angle_r_u	ankle_angle_r_u	subtalar_angle_r_u	mtp_angle_r_u	hip_flexion_l_u	hip_adduction_l_u	hip_rotation_l_u	knee_angle_l_u	ankle_angle_l_u	subtalar_angle_l_u	mtp_angle_l_u	lumbar_extension_u	lumbar_bending_u	lumbar_rotation_u
      1.32082999999996530000	     -0.25005900177552243000	      0.97387571808699314000	      0.26953030171460302000	      5.09406179564451290000	      0.38384900105792275000	     12.93653956748617700000	     -0.92749526455413178000	      1.78300921745874620000	      2.14563812754147640000	    -11.09330218750774600000	      7.26294726527086090000	     -0.00000000000006758116	      0.00000000000001261850	     10.29671297025811700000	     -1.84653753357923730000	      6.51200503689028750000	    -38.49544876189649800000	     11.92224854999616900000	     -0.00000000000002474317	      0.00000000000072897585	    -11.41024854461782400000	      5.56947088913235790000	     -3.17675978346664500000	      0.48225498516171278000	     -0.03020473383932965900	     -0.02688383263129868300	      2.06367869635660780000	     16.01623936390806700000	      3.33743192502708430000	    -43.84391360389508200000	    -10.86615627327551300000	     14.86078037767636000000	      8.23525608110865370000	     26.85722997213225200000	      0.00000000000028489880	      0.00000000000004579511	     55.47299987613393300000	     37.89715173540251700000	      1.77159978623198030000	     86.77225566822396300000	     59.57567110324077200000	     -0.00000000000033747917	      0.00000000000135067181	     -5.58634356206960180000	    -13.03357716902801800000	      7.07681585945991640000
      1.32132999999996530000	     -0.24981784060032500000	      0.97386059267779868000	      0.26951685627944966000	      5.09511065382719240000	      0.39185156131104598000	     12.93818415175453900000	     -0.94943654839296510000	      1.77758137387479050000	      2.15309094382069200000	    -11.08918601550070600000	      7.27638453806313020000	     -0.00000000000006744061	      0.00000000000001264440	     10.32438110040509300000	     -1.82760029290579200000	      6.51291468950562360000	    -38.45196011303991700000	     11.95194584987258500000	     -0.00000000000002491215	      0.00000000000072965132	    -11.41305162316632000000	      5.56295589726404940000	     -3.17318400377999500000	      0.48238969920348757000	     -0.03029689477689818900	     -0.02689728347295678200	      2.13171932167427870000	     15.99391206130582300000	      3.24078339947985490000	    -43.92101879183772400000	    -10.84506765204475600000	     14.95078121849496400000	      8.22924511985687880000	     26.89202339960133500000	      0.00000000000027720775	      0.00000000000004817098	     55.19947166871069300000	     37.85164856314959500000	      1.86751540502771810000	     87.18241731096485100000	     59.21335906399456000000	     -0.00000000000033782369	      0.00000000000135069191	     -5.62601774939593560000	    -13.02643704409114100000	      7.22653841120150990000
      1.32182999999996520000	     -0.24957661209755080000	      0.97384542119222528000	      0.26950340506009002000	      5.09619347545018900000	      0.39984282366505675000	     12.93978022905842800000	     -0.97141607419497034000	      1.77216429986019450000	      2.16058920707066050000	    -11.08507313016549400000	      7.28983947191578970000	     -0.00000000000006730426	      0.00000000000001266986	     10.35191240229181100000	     -1.80868604754136550000	      6.51387304540458970000	    -38.40826627637770200000	     11.98146174889836100000	     -0.00000000000002508093	      0.00000000000073032670	    -11.41587460508041300000	      5.55644440330311530000	     -3.16953301467314000000	      0.48252428567946676000	     -0.03038905552612899600	     -0.02690696056264497300	      2.19952277740426450000	     15.97104804307928200000	      3.14340404966580160000	    -43.99686898227668100000	    -10.82307872046726900000	     15.04257175931482100000	      8.22210750367490030000	     26.92791543178164900000	      0.00000000000028586785	      0.00000000000003311184	     54.92570598949019700000	     37.80517027798652000000	      1.96638955399034780000	     87.59298768624945800000	     58.85008650285321600000	     -0.00000000000033800094	      0.00000000000135094480	     -5.66594817320296330000	    -13.01958961323463800000	      7.37764305816800730000
      1.32232999999996510000	     -0.24933531634091574000	      0.97383020361389161000	      0.26948994995176312000	      5.09731013227382230000	      0.40782251988283247000	     12.94132743464689200000	     -0.99343320208437158000	      1.76675844503108780000	      2.16813381382270530000	    -11.08096409722158900000	      7.30331263300425170000	     -0.00000000000006715947	      0.00000000000001268779	     10.37930677679967300000	     -1.78979528533439810000	      6.51488156262096660000	    -38.36436706758610900000	     12.01079578605602700000	     -0.00000000000002525003	      0.00000000000073100235	    -11.41871760951997100000	      5.54993625704355420000	     -3.16580613623129370000	      0.48265871436372604000	     -0.03048126642515909900	     -0.02691284038701048000	      2.26706017381913230000	     15.94764721024641000000	      3.04529787745289720000	    -44.07142733345641300000	    -10.80019054247624100000	     15.13615160820623400000	      8.21383454660544210000	     26.96488364814619800000	      0.00000000000029463007	      0.00000000000004813755	     54.65176307227332600000	     37.75771579262713800000	      2.06816495559284120000	     88.00390416065737000000	     58.48591247341625600000	     -0.00000000000033849465	      0.00000000000135173869	     -5.70610763741501700000	    -13.01304581490140100000	      7.53009446461151910000
